<svg width="126" height="26" viewBox="0 0 126 26" fill="none" xmlns="http://www.w3.org/2000/svg">
<path d="M10.2889 11.3051H6.75974C5.40237 17.8241 4.69381 21.2031 4.69381 21.4693C4.69381 22.6997 6.18693 22.6128 7.59589 21.7762L8.51891 24.8999C7.63933 25.6469 6.49641 25.9864 5.13361 25.9864C2.36184 25.9864 0.955594 24.4898 0.955594 21.8061C0.966453 21.1596 1.62885 17.6855 2.98623 11.3051H0L0.746558 7.69787H3.78166L4.52821 4.00376L5.4078 0H9.18945C9.05552 0.747876 8.79129 2.02361 8.39674 3.8272L7.5606 7.69787H11.0355L10.2889 11.3051Z" fill="#115D8C"/>
<path d="M25.7196 7.60554L24.0907 10.9058C23.5612 10.7575 23.0109 10.6978 22.4619 10.7292C20.8526 10.7219 19.2667 11.1149 17.8468 11.8728L15.037 25.2965H11.2554L14.9909 7.69789H18.1128L18.0694 8.31448C19.2279 7.67791 20.5048 7.28648 21.8209 7.16452C23.1369 7.04256 24.464 7.19268 25.7196 7.60554Z" fill="#115D8C"/>
<path d="M67.744 17.289C67.6569 17.8415 67.6125 18.4 67.611 18.9595C67.611 21.2502 68.6661 22.3946 70.7764 22.3928C73.3717 22.3928 75.0413 21.0727 75.4376 19.1795L79.1297 19.5326C78.2067 23.8433 75.3508 26 70.6461 26C66.2482 26 63.8293 23.1832 63.8293 18.916C63.8293 15.6565 64.7967 12.885 66.7314 10.6015C68.667 8.27098 71.1728 7.12744 74.2051 7.12744C78.3831 7.12744 80.3568 9.77851 80.3568 13.5052C80.3354 14.7779 80.1881 16.0453 79.917 17.289H67.744ZM68.7539 14.1245H76.6267C76.7129 13.7191 76.7575 13.3059 76.7597 12.8913C76.7597 11.4409 75.8367 10.7373 73.9445 10.7373C71.6126 10.7346 69.8968 11.8782 68.7539 14.1245Z" fill="#115D8C"/>
<path d="M86.7799 21.4584C86.7799 21.2601 88.2839 14.0811 91.2864 0H87.5129C86.8089 3.30659 86.037 6.8848 85.1972 10.7346C83.7476 17.4655 83.0444 21.1596 83.0444 21.8197C83.0444 24.5033 84.4507 26 87.2225 26C88.5798 26 89.7255 25.6469 90.605 24.9135L89.682 21.7898C88.2758 22.6101 86.7799 22.6997 86.7799 21.4584Z" fill="#115D8C"/>
<path d="M97.1583 17.289C97.0712 17.8415 97.0268 18.4 97.0253 18.9595C97.0253 21.2502 98.0804 22.3946 100.191 22.3928C102.786 22.3928 104.456 21.0727 104.852 19.1795L108.544 19.5326C107.621 23.8433 104.765 26 100.06 26C95.6625 26 93.2437 23.1832 93.2437 18.916C93.2437 15.6565 94.211 12.885 96.1457 10.6015C98.0813 8.27098 100.587 7.12744 103.622 7.12744C107.797 7.12744 109.777 9.76493 109.777 13.5052C109.755 14.7779 109.608 16.0453 109.337 17.289H97.1583ZM98.1682 14.1245H106.041C106.127 13.7191 106.172 13.3059 106.174 12.8913C106.174 11.4409 105.251 10.7373 103.359 10.7373C101.027 10.7346 99.3111 11.8782 98.1682 14.1245Z" fill="#115D8C"/>
<path d="M126 7.60556L124.371 10.9058C123.842 10.7575 123.291 10.6979 122.742 10.7293C121.133 10.7219 119.547 11.1149 118.127 11.8728L115.315 25.2911H111.536L115.271 7.69248H118.393L118.364 8.3145C119.52 7.67981 120.795 7.28942 122.108 7.16747C123.422 7.04553 124.746 7.19463 126 7.60556Z" fill="#115D8C"/>
<path d="M22.9886 25.9619L21.1914 23.3082L34.0322 5.19073C34.5694 4.43142 35.3141 3.84329 36.177 3.49688C37.0399 3.15048 37.9843 3.0605 38.8971 3.23774L43.8325 23.8405L41.8317 25.9185L31.6351 23.8786L22.9886 25.9619ZM31.9473 20.4452L39.8879 22.0342L36.4456 7.70598L26.6264 21.5589L31.1899 20.4724L31.9473 20.4452Z" fill="#F25D27"/>
<path d="M47.8612 25.8751L42.9258 5.27227L44.9266 3.19434L55.1232 5.23425L63.767 3.15088L65.5642 5.80466L52.7261 23.9221C52.1882 24.6806 51.4434 25.2682 50.5807 25.6145C49.718 25.9608 48.7739 26.0513 47.8612 25.8751ZM46.8785 7.07858L50.3099 21.4068L60.1319 7.55393L55.5576 8.65673L54.8191 8.67303L46.8785 7.07858Z" fill="#F25D27"/>
</svg>
